<svg xmlns="http://www.w3.org/2000/svg" viewBox="0 0 512 512" id="customer-loyalty"><linearGradient id="a" x1="44.989" x2="432.585" y1="457.077" y2="69.482" gradientUnits="userSpaceOnUse"><stop offset="0" stop-color="#fcc60e"></stop><stop offset="1" stop-color="#e92e29"></stop></linearGradient><path fill="url(#a)" fill-rule="evenodd" d="m206.728 49.224 19.54 15.706-6.577 24.192c-1.114 4.1.387 8.362 3.823 10.86a10.099 10.099 0 0 0 5.955 1.952c1.923 0 3.851-.556 5.557-1.672L256 86.532l20.976 13.73c3.556 2.327 8.074 2.22 11.517-.283 3.433-2.498 4.932-6.759 3.818-10.858l-6.577-24.191 19.539-15.705c3.312-2.659 4.604-6.989 3.294-11.03-1.312-4.044-4.903-6.791-9.149-6.997l-25.04-1.221-8.898-23.436v-.002C263.97 2.567 260.25 0 256.001 0c-4.25 0-7.971 2.567-9.479 6.539l-8.898 23.438-25.039 1.221c-4.247.206-7.839 2.953-9.147 6.989-1.317 4.045-.023 8.379 3.29 11.037zm35.506-3.453a10.133 10.133 0 0 0 8.986-6.526L256 26.654l4.78 12.592a10.132 10.132 0 0 0 8.983 6.525l13.451.656-10.497 8.437a10.137 10.137 0 0 0-3.432 10.561l3.533 12.996-11.262-7.372a10.134 10.134 0 0 0-11.111-.004l-11.268 7.376 3.534-13a10.132 10.132 0 0 0-3.433-10.557l-10.496-8.437 13.452-.656zm77.263 25.081 19.541 15.705-6.577 24.192c-1.114 4.1.387 8.362 3.823 10.86a10.099 10.099 0 0 0 5.955 1.952c1.923 0 3.851-.556 5.557-1.672l20.975-13.73 20.976 13.73c3.554 2.326 8.069 2.218 11.517-.283 3.434-2.498 4.933-6.76 3.818-10.857l-6.577-24.192 19.539-15.704c3.314-2.664 4.606-6.996 3.294-11.031-1.312-4.044-4.903-6.791-9.149-6.997l-25.04-1.221-8.898-23.436v-.002c-1.509-3.972-5.229-6.539-9.478-6.539-4.25 0-7.971 2.567-9.479 6.539l-8.898 23.438-25.039 1.221c-4.247.206-7.839 2.953-9.147 6.989-1.316 4.04-.026 8.371 3.287 11.038zm35.508-3.455a10.133 10.133 0 0 0 8.986-6.526l4.779-12.591 4.781 12.592a10.132 10.132 0 0 0 8.983 6.525l13.451.656-10.498 8.438a10.13 10.13 0 0 0-3.431 10.56l3.533 12.996-11.262-7.372a10.129 10.129 0 0 0-11.112-.004l-11.267 7.375 3.534-12.997a10.137 10.137 0 0 0-3.433-10.559l-10.497-8.437 13.453-.656zM93.956 70.852l19.54 15.705-6.574 24.185c-1.119 4.103.38 8.368 3.82 10.868a10.114 10.114 0 0 0 5.956 1.953c1.924 0 3.852-.556 5.556-1.673l20.975-13.73 20.976 13.73c3.556 2.328 8.073 2.219 11.513-.28 3.437-2.497 4.937-6.76 3.822-10.86l-6.577-24.192 19.545-15.708c3.31-2.664 4.6-6.995 3.288-11.027-1.312-4.044-4.903-6.791-9.149-6.997l-25.04-1.221-8.898-23.436v-.002c-1.509-3.972-5.229-6.539-9.478-6.539-4.254 0-7.976 2.57-9.477 6.539l-8.899 23.438-25.04 1.221c-4.242.206-7.833 2.95-9.15 6.997-1.311 4.039-.019 8.368 3.291 11.029zm35.507-3.455a10.127 10.127 0 0 0 8.985-6.526l4.781-12.59 4.78 12.591a10.132 10.132 0 0 0 8.983 6.525l13.451.656-10.503 8.44a10.143 10.143 0 0 0-3.426 10.557l3.533 12.996-11.262-7.372a10.134 10.134 0 0 0-11.111-.004l-11.267 7.375 3.533-12.997a10.132 10.132 0 0 0-3.433-10.559l-10.497-8.437 13.453-.655zm44.798 127.239c6.002-6.245 9.705-14.717 9.705-24.042 0-19.147-15.578-34.726-34.726-34.726s-34.726 15.578-34.726 34.726c0 9.328 3.704 17.803 9.71 24.048-15.57 6.971-27.814 20.351-33.129 37.514-1.913 6.176-.819 12.689 2.999 17.869 3.819 5.181 9.718 8.152 16.185 8.152h67.476v6.28c0 14.822 12.06 26.881 26.882 26.881h102.728c14.82 0 26.88-12.059 26.881-26.881v-6.277h67.477c6.467 0 12.365-2.972 16.185-8.152 3.818-5.181 4.911-11.694 2.998-17.87-5.314-17.163-17.559-30.543-33.128-37.514 6.006-6.246 9.71-14.72 9.71-24.048 0-19.147-15.578-34.726-34.726-34.726s-34.726 15.578-34.726 34.726c0 9.325 3.702 17.796 9.704 24.041a60.164 60.164 0 0 0-19.9 14.448 78.537 78.537 0 0 0-33.262-24.63c9.266-8.023 15.145-19.858 15.145-33.048 0-24.108-19.613-43.723-43.722-43.723s-43.723 19.614-43.723 43.723c0 13.19 5.879 25.025 15.145 33.048a78.543 78.543 0 0 0-33.262 24.63 60.153 60.153 0 0 0-19.9-14.449zm-25.021-42.768c10.325 0 18.726 8.4 18.726 18.726s-8.4 18.726-18.726 18.726-18.726-8.4-18.726-18.726 8.401-18.726 18.726-18.726zm-42.266 88.664a4.008 4.008 0 0 1-.595-3.644c5.849-18.883 23.072-31.569 42.86-31.569 14.387 0 27.527 6.695 35.975 18.085a78.287 78.287 0 0 0-6.314 18.773h-68.621a4.005 4.005 0 0 1-3.305-1.645zm237.061-69.936c0-10.325 8.4-18.726 18.726-18.726s18.726 8.4 18.726 18.726-8.4 18.726-18.726 18.726-18.726-8.401-18.726-18.726zm18.726 34.725c19.789 0 37.013 12.687 42.86 31.57a4.01 4.01 0 0 1-.594 3.644 4.008 4.008 0 0 1-3.306 1.646H333.1a78.36 78.36 0 0 0-6.314-18.775c8.447-11.389 21.588-18.085 35.975-18.085zm-106.76-81.637c15.286 0 27.722 12.437 27.722 27.723s-12.436 27.722-27.722 27.722-27.723-12.436-27.723-27.722 12.437-27.723 27.723-27.723zM256 195.128c31.961 0 58.647 23.826 62.245 55.489v13.84c-.001 6-4.882 10.882-10.881 10.882H204.637c-6 0-10.882-4.881-10.882-10.881v-13.841c3.598-31.663 30.284-55.489 62.245-55.489zm235.041 130.49c-4.586-7.657-23.399-30.395-72.941-1.54l-86.962 50.65c-4.125 2.402-8.317 4.134-12.679 5.212 1.559-2.627 2.79-5.566 3.655-8.795 4.483-16.737-5.46-34.211-22.637-39.78a8.41 8.41 0 0 0-1.048-.263c-24.968-4.503-49.621-13.416-69.431-20.577-6.891-2.491-13.398-4.844-18.935-6.639-22.375-7.261-42.566 1.711-59.372 11.441L86.24 352.642 79.312 340.4c-2.729-4.824-7.188-8.3-12.553-9.786-5.363-1.486-10.977-.802-15.799 1.929l-24.399 13.809c-9.983 5.65-13.509 18.368-7.858 28.352l71.733 126.749c3.823 6.755 10.882 10.553 18.14 10.553 3.469 0 6.984-.868 10.212-2.695l24.4-13.809c4.823-2.73 8.299-7.188 9.785-12.553 1.487-5.365.803-10.976-1.928-15.8l-6.288-11.11 14.403-8.315 111.267 29.813c6.316 1.693 12.517 2.538 18.584 2.538 12.096 0 23.66-3.36 34.544-10.061l157.815-97.176c14.513-8.933 19.122-31.44 9.671-47.22zM137.557 478.676a4.767 4.767 0 0 1-2.248 2.901l-24.4 13.81a4.77 4.77 0 0 1-3.645.434 4.773 4.773 0 0 1-2.902-2.248l-71.734-126.75a4.77 4.77 0 0 1-.434-3.645 4.773 4.773 0 0 1 2.249-2.902l24.399-13.809a4.731 4.731 0 0 1 2.332-.614c.438 0 .878.06 1.313.181a4.766 4.766 0 0 1 2.901 2.248l61.563 108.777c.003.006.005.012.009.017l.007.012 10.155 17.942c.626 1.105.78 2.4.435 3.646zm335.426-119.462L315.168 456.39c-12.445 7.663-26.107 9.58-40.598 5.692l-114.468-30.671a7.996 7.996 0 0 0-6.07.799l-17.155 9.903-42.755-75.545 64.587-37.394c14.444-8.363 30.065-15.374 46.418-10.067 5.284 1.713 11.377 3.915 18.432 6.466 20.225 7.312 45.36 16.398 71.45 21.171 8.933 3.132 13.928 11.759 11.649 20.262-2.997 11.184-12.332 12.583-19.762 11.731-12.795-2.631-24.959-6.103-37.83-9.779-6.11-1.745-12.429-3.55-18.925-5.29A8 8 0 0 0 226 379.123c6.369 1.706 12.623 3.492 18.671 5.22 13.277 3.792 25.818 7.374 39.328 10.136.052.011.104.014.155.024.055.01.107.026.163.035l10.813 1.758c16.241 2.601 30.652.067 44.058-7.739l86.962-50.65c24.882-14.489 44.008-16.01 51.163-4.065 4.923 8.215 2.738 21.021-4.33 25.372zm-406.231 13.2a8.712 8.712 0 1 1-17.24 2.52 8.712 8.712 0 0 1 17.24-2.52z" clip-rule="evenodd"></path></svg>