<svg xmlns="http://www.w3.org/2000/svg" enable-background="new 0 0 70 70" viewBox="0 0 70 70" id="joint-venture"><path fill="#a3cbe4" d="M67.002,38.735l-8.307,3.58c-0.803,0.36-1.745,0.001-2.105-0.802l-7.341-16.374
		c-0.36-0.803-0.001-1.745,0.802-2.105l16.951-7.304V38.735z"></path><path d="M66.998,15.726v23.01l-8.3,3.58c-0.81,0.36-1.75,0-2.11-0.8l-0.41-0.92c0.04-0.01,0.08-0.02,0.12-0.04
		l3.117-1.343c3.152-1.358,5.193-4.46,5.193-7.892V16.756L66.998,15.726z" opacity=".1"></path><path fill="#a3cbe4" d="M3.002,38.538l8.307,3.776c0.803,0.36,1.745,0.001,2.105-0.802l7.341-16.374
		c0.36-0.803,0.001-1.745-0.802-2.105L3.002,15.086V38.538z"></path><path d="M13.718,40.836l-0.31,0.68c-0.36,0.8-1.3,1.16-2.1,0.8l-8.31-3.78v-23.45l2.5,1.17v15.251
		c0,3.409,1.994,6.504,5.099,7.912L13.718,40.836z" opacity=".1"></path><path fill="#fff" d="M22.962,43.018l-3.108,3.815c-0.67,0.822-1.872,0.945-2.694,0.275c-0.409-0.333-0.648-0.805-0.698-1.29
		c-0.047-0.488,0.086-0.991,0.423-1.404l3.108-3.815c0.667-0.819,1.872-0.945,2.694-0.275c0.409,0.333,0.648,0.805,0.698,1.29
		C23.431,42.102,23.295,42.608,22.962,43.018z"></path><path fill="#fff" d="M25.931,45.436l-3.712,4.557c-0.67,0.822-1.872,0.945-2.694,0.275c-0.409-0.333-0.648-0.805-0.698-1.29
		c-0.047-0.488,0.086-0.991,0.423-1.404l3.712-4.557c0.667-0.819,1.872-0.945,2.694-0.275c0.409,0.333,0.648,0.805,0.698,1.29
		C26.4,44.52,26.264,45.027,25.931,45.436z"></path><path fill="#fff" d="M28.9,47.855l-3.108,3.815c-0.67,0.822-1.872,0.945-2.694,0.275c-0.409-0.333-0.648-0.805-0.698-1.29
		c-0.047-0.488,0.086-0.991,0.423-1.404l3.108-3.815c0.667-0.819,1.872-0.945,2.694-0.275c0.409,0.333,0.648,0.805,0.698,1.29
		C29.369,46.939,29.233,47.445,28.9,47.855z"></path><path fill="#fff" d="M31.869 50.273l-2.447 3.004c-.67.822-1.872.945-2.694.275-.409-.333-.648-.805-.698-1.29-.047-.488.086-.991.423-1.404l2.447-3.004c.667-.819 1.872-.945 2.694-.275.409.333.648.805.698 1.29C32.338 49.357 32.202 49.864 31.869 50.273zM56.598 41.536l-2.21 1.15-6.41 3.34-.56-.81-3.21-4.69-.01-.01-4.8-7.01c-.51-.75-1.55-.91-2.27-.36l-3.31 2.51c-1.76 1.33-4.08 1.69-6.16.95l-.52-.19c-.93-.32-1.23-1.48-.59-2.22l6.29-7.22.81-.93c1.68-1.93 4.48-2.44 6.74-1.22l2.23 1.21c1.29.69 2.8.85 4.2.42l.25-.07 2.41-.73 7.11 15.86C56.598 41.516 56.598 41.526 56.598 41.536z"></path><path fill="#fff" d="M47.768,46.826c-0.1,0.54-0.41,1.04-0.9,1.38c-0.96,0.66-2.26,0.44-2.94-0.5l0.57,0.83
		c0.33,0.49,0.44,1.07,0.34,1.61c-0.1,0.53-0.41,1.04-0.9,1.37c-0.97,0.68-2.31,0.43-2.98-0.55l-0.61-0.88
		c0.34,0.49,0.44,1.06,0.35,1.6c-0.1,0.54-0.41,1.05-0.9,1.38c-0.98,0.68-2.31,0.43-2.98-0.55l-0.67-0.97
		c0.34,0.49,0.45,1.07,0.35,1.61c-0.1,0.54-0.41,1.04-0.9,1.38c-0.98,0.67-2.31,0.43-2.98-0.56l-0.25-0.36l-1.48-2.14l0.98-1.2
		c0.33-0.41,0.47-0.92,0.42-1.41c-0.05-0.48-0.29-0.96-0.69-1.29l-1.86-0.31c-0.32,0.11-0.61,0.31-0.84,0.59
		c0.33-0.41,0.47-0.92,0.42-1.4c-0.04-0.49-0.29-0.96-0.69-1.3c-0.83-0.67-2.03-0.54-2.7,0.28c0.34-0.41,0.47-0.91,0.42-1.4
		c-0.05-0.49-0.28-0.96-0.69-1.29c-0.82-0.67-2.03-0.55-2.69,0.27c0.33-0.41,0.46-0.92,0.42-1.4c-0.05-0.49-0.29-0.96-0.7-1.29
		c-0.82-0.67-2.03-0.54-2.7,0.27l-2.69,3.31l-1.85-0.9l-0.46-0.22l-1.82-0.89c0.1-0.11,0.18-0.24,0.24-0.38l6.36-14.18
		c0.74,0.29,1.49,0.63,2.38,0.81c0.55,0.12,1.16,0.18,1.84,0.13c0.67-0.05,1.3-0.3,1.88-0.62c2.87-1.59,6.74-0.74,6.97-0.68
		c0.01,0,0.01,0,0.01,0l-6.3,7.22c-0.64,0.74-0.34,1.9,0.59,2.22l0.52,0.19c1.99,0.71,9.21-4.29,10.94-5.48l5.61,9.4l0.09,0.15
		l3.12,4.54C47.758,45.716,47.868,46.286,47.768,46.826z"></path><path d="M34.778 48.616c.11 1.19-.23 2.33-.97 3.24l-1.44 1.76-1.48-2.14.98-1.2c.33-.41.47-.92.42-1.41-.05-.48-.29-.96-.69-1.29l-1.86-.31c-.32.11-.61.31-.84.59.33-.41.47-.92.42-1.4-.04-.49-.29-.96-.69-1.3-.83-.67-2.03-.54-2.7.28.34-.41.47-.91.42-1.4-.05-.49-.28-.96-.69-1.29-.82-.67-2.03-.55-2.69.27.33-.41.46-.92.42-1.4-.05-.49-.29-.96-.7-1.29-.82-.67-2.03-.54-2.7.27l-2.69 3.31-1.85-.9-.46-.22 3.07-3.77c.84-1.03 2.09-1.62 3.42-1.62 1.01 0 2 .35 2.79.99.51.42.93.95 1.2 1.55.64.15 1.25.45 1.77.87.52.43.93.96 1.2 1.55.64.15 1.25.45 1.77.87.51.42.92.95 1.2 1.55.64.15 1.25.44 1.76.86C34.078 46.376 34.658 47.456 34.778 48.616zM56.598 41.536l-2.21 1.15c-.03-.05-.06-.1-.08-.15l-7.24-16.15 2.41-.73 7.11 15.86C56.598 41.516 56.598 41.526 56.598 41.536z" opacity=".1"></path><path d="M22.148,28.146l-6.45,14.39c-0.07,0.16-0.16,0.32-0.25,0.47l-2.28-1.11c0.1-0.11,0.18-0.24,0.24-0.38
		l6.36-14.18C20.508,27.626,21.258,27.966,22.148,28.146z" opacity=".1"></path><path fill="none" stroke="#2f434c" stroke-linecap="round" stroke-linejoin="round" stroke-miterlimit="10" stroke-width="1.75" d="M56.598,41.531l-8.62,4.495L39.403,33.51c-0.513-0.749-1.549-0.917-2.273-0.368l-3.313,2.514
		c-1.76,1.335-4.073,1.693-6.154,0.952l-0.526-0.187c-0.925-0.329-1.228-1.487-0.583-2.227l7.095-8.143
		c1.685-1.933,4.484-2.441,6.741-1.223l2.234,1.206c1.286,0.694,2.795,0.847,4.194,0.424l2.667-0.807l7.106,15.861
		C56.594,41.517,56.594,41.526,56.598,41.531z"></path><path fill="none" stroke="#2f434c" stroke-linecap="round" stroke-linejoin="round" stroke-miterlimit="10" stroke-width="1.75" d="M29.742,47.263c-0.319,0.111-0.611,0.31-0.843,0.593c0.333-0.412,0.472-0.917,0.421-1.403
		c-0.046-0.486-0.287-0.958-0.694-1.292c-0.824-0.671-2.028-0.542-2.694,0.273c0.333-0.407,0.468-0.912,0.421-1.403
		c-0.051-0.481-0.287-0.954-0.699-1.287c-0.819-0.671-2.023-0.546-2.69,0.273c0.333-0.407,0.468-0.917,0.421-1.403
		c-0.051-0.486-0.287-0.958-0.699-1.292c-0.819-0.667-2.028-0.542-2.694,0.278l-2.69,3.306l-4.134-2.009
		c0.097-0.111,0.181-0.241,0.245-0.384l6.357-14.181c1.199,0.472,2.449,1.06,4.218,0.94c0.667-0.051,1.301-0.292,1.884-0.616
		c2.954-1.639,6.972-0.685,6.972-0.685l-6.292,7.222c-0.643,0.741-0.343,1.898,0.583,2.227l0.528,0.19
		c1.981,0.704,4.176,0.412,5.903-0.773"></path><path fill="none" stroke="#2f434c" stroke-linecap="round" stroke-linejoin="round" stroke-miterlimit="10" stroke-width="1.75" d="M22.962,43.018l-3.108,3.815c-0.67,0.822-1.872,0.945-2.694,0.275c-0.409-0.333-0.648-0.805-0.698-1.29
		c-0.047-0.488,0.086-0.991,0.423-1.404l3.108-3.815c0.667-0.819,1.872-0.945,2.694-0.275c0.409,0.333,0.648,0.805,0.698,1.29
		C23.431,42.102,23.295,42.608,22.962,43.018z"></path><path fill="none" stroke="#2f434c" stroke-linecap="round" stroke-linejoin="round" stroke-miterlimit="10" stroke-width="1.75" d="M25.931,45.436l-3.712,4.557c-0.67,0.822-1.872,0.945-2.694,0.275c-0.409-0.333-0.648-0.805-0.698-1.29
		c-0.047-0.488,0.086-0.991,0.423-1.404l3.712-4.557c0.667-0.819,1.872-0.945,2.694-0.275c0.409,0.333,0.648,0.805,0.698,1.29
		C26.4,44.52,26.264,45.027,25.931,45.436z"></path><path fill="none" stroke="#2f434c" stroke-linecap="round" stroke-linejoin="round" stroke-miterlimit="10" stroke-width="1.75" d="M28.9,47.855l-3.108,3.815c-0.67,0.822-1.872,0.945-2.694,0.275c-0.409-0.333-0.648-0.805-0.698-1.29
		c-0.047-0.488,0.086-0.991,0.423-1.404l3.108-3.815c0.667-0.819,1.872-0.945,2.694-0.275c0.409,0.333,0.648,0.805,0.698,1.29
		C29.369,46.939,29.233,47.445,28.9,47.855z"></path><path fill="none" stroke="#2f434c" stroke-linecap="round" stroke-linejoin="round" stroke-miterlimit="10" stroke-width="1.75" d="M31.869 50.273l-2.447 3.004c-.67.822-1.872.945-2.694.275-.409-.333-.648-.805-.698-1.29-.047-.488.086-.991.423-1.404l2.447-3.004c.667-.819 1.872-.945 2.694-.275.409.333.648.805.698 1.29C32.338 49.357 32.202 49.864 31.869 50.273zM40.763 43.109l3.125 4.543c.673.979 2.005 1.225 2.984.552.487-.335.797-.84.896-1.377.096-.541-.006-1.115-.344-1.607l-3.125-4.543"></path><path fill="none" stroke="#2f434c" stroke-linecap="round" stroke-linejoin="round" stroke-miterlimit="10" stroke-width="1.75" d="M37.227,45.54l3.733,5.427c0.673,0.979,2.005,1.225,2.984,0.552c0.487-0.335,0.797-0.84,0.896-1.377
		c0.096-0.541-0.006-1.115-0.344-1.607l-3.733-5.427"></path><path fill="none" stroke="#2f434c" stroke-linecap="round" stroke-linejoin="round" stroke-miterlimit="10" stroke-width="1.75" d="M33.691,47.972l3.125,4.543c0.673,0.979,2.005,1.225,2.984,0.552c0.487-0.335,0.797-0.84,0.896-1.377
		c0.096-0.541-0.006-1.115-0.344-1.607l-3.125-4.543"></path><path fill="none" stroke="#2f434c" stroke-linecap="round" stroke-linejoin="round" stroke-miterlimit="10" stroke-width="1.75" d="M33.691 47.971l2.458 3.579c.343.491.444 1.065.347 1.606-.102.537-.407 1.042-.898 1.38-.977.671-2.31.426-2.981-.556l-1.727-2.505.977-1.204c.333-.407.472-.917.426-1.403-.051-.486-.292-.958-.699-1.292M67.002 38.735l-8.307 3.58c-.803.36-1.745.001-2.105-.802l-7.341-16.374c-.36-.803-.001-1.745.802-2.105l16.951-7.304V38.735zM3.002 38.538l8.307 3.776c.803.36 1.745.001 2.105-.802l7.341-16.374c.36-.803.001-1.745-.802-2.105L3.002 15.086V38.538z"></path><line x1="59.021" x2="59.676" y1="37.034" y2="38.538" fill="none" stroke="#fff" stroke-linecap="round" stroke-linejoin="round" stroke-miterlimit="10" stroke-width="1.75"></line><line x1="10.254" x2="10.909" y1="38.538" y2="37.034" fill="none" stroke="#fff" stroke-linecap="round" stroke-linejoin="round" stroke-miterlimit="10" stroke-width="1.75"></line></svg>